<?xml version="1.0" encoding="UTF-8" standalone="no"?>
<svg
   xmlns:dc="http://purl.org/dc/elements/1.1/"
   xmlns:cc="http://creativecommons.org/ns#"
   xmlns:rdf="http://www.w3.org/1999/02/22-rdf-syntax-ns#"
   xmlns:svg="http://www.w3.org/2000/svg"
   xmlns="http://www.w3.org/2000/svg"
   xmlns:xlink="http://www.w3.org/1999/xlink"
   xmlns:sodipodi="http://sodipodi.sourceforge.net/DTD/sodipodi-0.dtd"
   xmlns:inkscape="http://www.inkscape.org/namespaces/inkscape"
   version="1.1"
   id="weather-icon-mostlysunny"
   x="0px"
   y="0px"
   viewBox="0 0 64 64"
   style="enable-background:new 0 0 64 64;"
   xml:space="preserve"
   sodipodi:docname="nt_partlycloudy.svg"
   inkscape:version="1.0.1 (c497b03c, 2020-09-10)"><metadata
   id="metadata844"><rdf:RDF><cc:Work
       rdf:about=""><dc:format>image/svg+xml</dc:format><dc:type
         rdf:resource="http://purl.org/dc/dcmitype/StillImage" /><dc:title></dc:title></cc:Work></rdf:RDF></metadata><defs
   id="defs842"><linearGradient
     inkscape:collect="always"
     id="linearGradient1532"><stop
       style="stop-color:#c2dae3;stop-opacity:1"
       offset="0"
       id="stop1528" /><stop
       style="stop-color:#b6abf9;stop-opacity:0.96862745"
       offset="1"
       id="stop1530" /></linearGradient><linearGradient
     inkscape:collect="always"
     xlink:href="#linearGradient1532"
     id="linearGradient1534"
     x1="0"
     y1="64.114357"
     x2="60.70908"
     y2="4.1994886"
     gradientUnits="userSpaceOnUse" /></defs><sodipodi:namedview
   pagecolor="#ffffff"
   bordercolor="#666666"
   borderopacity="1"
   objecttolerance="10"
   gridtolerance="10"
   guidetolerance="10"
   inkscape:pageopacity="0"
   inkscape:pageshadow="2"
   inkscape:window-width="1440"
   inkscape:window-height="844"
   id="namedview840"
   showgrid="false"
   inkscape:zoom="5.2946039"
   inkscape:cx="32.441917"
   inkscape:cy="28.640737"
   inkscape:window-x="0"
   inkscape:window-y="69"
   inkscape:window-maximized="0"
   inkscape:current-layer="layer1" />
<style
   type="text/css"
   id="style833">
	.st0{fill:#72B8D4;}
</style>


<g
   inkscape:groupmode="layer"
   id="layer1"
   inkscape:label="Background"
   style="display:inline"><rect
     style="fill:url(#linearGradient1534);fill-opacity:1;stroke-width:7.55906;paint-order:markers stroke fill"
     id="rect1495"
     width="63.964207"
     height="63.964207"
     x="0"
     y="0.15015072"
     ry="10.660702" /></g><g
   inkscape:groupmode="layer"
   id="layer2"
   inkscape:label="Foreground"
   style="display:inline"><path
     d="m 38.383008,56.583311 h -25.1 c -4.5999995,0 -8.3999995,-3.8 -8.3999995,-8.4 0,-3.5 2.1,-6.7 5.4000005,-7.9 0.1,-4.1 3.499999,-7.5 7.799999,-7.5 0.9,0 1.8,0.1 2.5,0.5 2,-2.8 5.3,-4.5 8.8,-4.5 6,0 10.9,4.9 10.9,10.9 0,0.5 0,0.9 -0.1,1.4 3.5,0.8 6.3,3.9 6.3,7.8 -0.2,4.2 -3.7,7.7 -8.1,7.7 z m -20.4,-20.5 c -2.4,0 -4.4,2 -4.4,4.4 0,0.3 0,0.5 0.1,0.8 l 0.3,1.6 -1.6,0.4 c -2.3999998,0.5 -4.0999995,2.6 -4.0999995,5 0,2.8 2.2999995,5.1 5.0999995,5.1 h 25.1 c 2.5,0 4.5,-2 4.5,-4.5 0,-2.5 -2,-4.5 -4.5,-4.5 h -0.3 l -2.5,0.1 0.8,-2.4 c 0.3,-0.8 0.4,-1.5 0.4,-2.4 0,-4.1 -3.4,-7.5 -7.5,-7.5 -2.8,0 -5.4,1.5 -6.7,4 l -0.9,1.6 -1.6,-0.8 c -0.6,-0.6 -1.5,-0.9 -2.2,-0.9 z"
     id="path905"
     style="fill:#00263c;fill-opacity:1" /><path
     class="st0"
     d="m 56.283008,23.083311 c 0,0 -1.1,0 -1.6,0 -5,0 -9.8,-2.3 -12.3,-5.9 -2.1,-3.1 -2.4,-7.4000004 -0.9,-11.4000008 v 0 h -0.3 c -4.1,0 -8.1,1.5 -10.9,4.4000008 -2.9,2.9 -4.6,6.9 -4.6,11.1 0,1.3 0.2,2.7 0.5,4 l 0.1,0.4 0.4,-0.1 c 0.7,-0.2 1.5,-0.3 2.3,-0.4 h 0.5 l -0.1,-0.4 c -0.3,-1.1 -0.5,-2.3 -0.5,-3.4 0,-5.3 3.6,-10.2 8.8,-12.0000003 -0.5,4.1000003 0.6,8.0000003 3.1,11.1000003 2.7,3.5 6.9,5.7 11.7,6.2 -2.2,4.2 -5,6.4 -9,7.1 l -0.4,0.1 0.2,0.4 c 0.3,0.7 0.5,1.4 0.6,2.1 l 0.1,0.4 0.4,-0.1 c 6.5,-1.3 11.5,-6.4 12.4,-12.9 l 0.1,-0.4 z"
     id="path907"
     style="fill:#e4f6ff;fill-opacity:1" /></g></svg>
