<?xml version="1.0" encoding="UTF-8" standalone="no"?>
<svg
   xmlns:osb="http://www.openswatchbook.org/uri/2009/osb"
   xmlns:dc="http://purl.org/dc/elements/1.1/"
   xmlns:cc="http://creativecommons.org/ns#"
   xmlns:rdf="http://www.w3.org/1999/02/22-rdf-syntax-ns#"
   xmlns:svg="http://www.w3.org/2000/svg"
   xmlns="http://www.w3.org/2000/svg"
   xmlns:xlink="http://www.w3.org/1999/xlink"
   xmlns:sodipodi="http://sodipodi.sourceforge.net/DTD/sodipodi-0.dtd"
   xmlns:inkscape="http://www.inkscape.org/namespaces/inkscape"
   id="weather-icon-clear"
   class="weather-icon weather-icon-black clear"
   viewBox="0 0 64 64"
   version="1.1"
   sodipodi:docname="loader.svg"
   inkscape:version="1.0.1 (c497b03c, 2020-09-10)">
  <metadata
     id="metadata1582">
    <rdf:RDF>
      <cc:Work
         rdf:about="">
        <dc:format>image/svg+xml</dc:format>
        <dc:type
           rdf:resource="http://purl.org/dc/dcmitype/StillImage" />
        <dc:title></dc:title>
      </cc:Work>
    </rdf:RDF>
  </metadata>
  <defs
     id="defs1580">
    <linearGradient
       inkscape:collect="always"
       id="linearGradient4117">
      <stop
         style="stop-color:#fffc00;stop-opacity:1"
         offset="0"
         id="stop4113" />
      <stop
         style="stop-color:#ffec00;stop-opacity:0.30241936"
         offset="1"
         id="stop4115" />
    </linearGradient>
    <linearGradient
       inkscape:collect="always"
       id="linearGradient2167"
       osb:paint="gradient">
      <stop
         style="stop-color:#feff83;stop-opacity:1;"
         offset="0"
         id="stop2163" />
      <stop
         style="stop-color:#feff83;stop-opacity:0;"
         offset="1"
         id="stop2165" />
    </linearGradient>
    <radialGradient
       inkscape:collect="always"
       xlink:href="#linearGradient4117"
       id="radialGradient4121"
       gradientUnits="userSpaceOnUse"
       cx="32.900002"
       cy="32.900002"
       fx="32.900002"
       fy="32.900002"
       r="20.9"
       gradientTransform="matrix(1.3947671,0.10198318,-0.10464066,1.4311079,-9.5451644,-17.538699)" />
  </defs>
  <sodipodi:namedview
     pagecolor="#ffffff"
     bordercolor="#666666"
     borderopacity="1"
     objecttolerance="10"
     gridtolerance="10"
     guidetolerance="10"
     inkscape:pageopacity="0"
     inkscape:pageshadow="2"
     inkscape:window-width="855"
     inkscape:window-height="727"
     id="namedview1578"
     showgrid="false"
     inkscape:zoom="4.4262682"
     inkscape:cx="47.697198"
     inkscape:cy="38.565115"
     inkscape:window-x="472"
     inkscape:window-y="34"
     inkscape:window-maximized="0"
     inkscape:current-layer="clear" />
  <style
     id="style1572">.st0{fill:#F4A71D;}</style>
  <g
     id="clear"
     style="fill:#ffff00">
    <path
       class="st0"
       d="m 32.9,19.2 c -0.7,0 -1.3,-0.6 -1.3,-1.3 v -4.6 c 0,-0.7 0.6,-1.3 1.3,-1.3 0.7,0 1.3,0.6 1.3,1.3 v 4.6 c 0,0.7 -0.6,1.3 -1.3,1.3 z m 0,34.6 c -0.7,0 -1.3,-0.6 -1.3,-1.3 v -4.6 c 0,-0.7 0.6,-1.3 1.3,-1.3 0.7,0 1.3,0.6 1.3,1.3 v 4.6 c 0,0.7 -0.6,1.3 -1.3,1.3 z m -15,-19.6 h -4.6 c -0.7,0 -1.3,-0.6 -1.3,-1.3 0,-0.7 0.6,-1.3 1.3,-1.3 h 4.6 c 0.7,0 1.3,0.6 1.3,1.3 0,0.7 -0.6,1.3 -1.3,1.3 z m 34.6,0 h -4.6 c -0.7,0 -1.3,-0.6 -1.3,-1.3 0,-0.7 0.6,-1.3 1.3,-1.3 h 4.6 c 0.7,0 1.3,0.6 1.3,1.3 0,0.7 -0.6,1.3 -1.3,1.3 z M 44,23.5 c -0.3,0 -0.7,-0.1 -0.9,-0.4 -0.5,-0.5 -0.5,-1.4 0,-1.9 L 46.3,18 c 0.5,-0.5 1.4,-0.5 1.9,0 0.5,0.5 0.5,1.4 0,1.9 L 45,23.1 c -0.3,0.3 -0.7,0.4 -1,0.4 z M 19.1,48.4 c -0.3,0 -0.7,-0.1 -0.9,-0.4 -0.5,-0.5 -0.5,-1.4 0,-1.9 l 3.2,-3.2 c 0.5,-0.5 1.4,-0.5 1.9,0 0.5,0.5 0.5,1.4 0,1.9 L 20,48 c -0.2,0.3 -0.6,0.4 -0.9,0.4 z m 28.1,-0.2 c -0.3,0 -0.7,-0.1 -0.9,-0.4 l -3.2,-3.2 c -0.5,-0.5 -0.5,-1.4 0,-1.9 0.5,-0.5 1.4,-0.5 1.9,0 l 3.2,3.2 c 0.5,0.5 0.5,1.4 0,1.9 -0.3,0.3 -0.6,0.4 -1,0.4 z M 22.3,23.7 c -0.3,0 -0.7,-0.1 -0.9,-0.4 l -3.2,-3.2 c -0.5,-0.5 -0.5,-1.4 0,-1.9 0.5,-0.5 1.4,-0.5 1.9,0 l 3.2,3.2 c 0.5,0.5 0.5,1.4 0,1.9 -0.3,0.3 -0.6,0.4 -1,0.4 z m 10.6,17.6 c 10.325821,2.290328 10.054979,-12.338008 8.4,-8.4 -1.782199,4.240727 -3.8,8.4 -8.4,8.4 -4.6,0 -8.4,-3.8 -8.4,-8.4 0,-4.6 -1.9083,7.937548 2.6917,7.937548 M 32.9,21.8 c -6.1,0 -11.1,5 -11.1,11.1 0,6.1 5,11.1 11.1,11.1 C 39,44 44,39 44,32.9 44,26.8 39,21.8 32.9,21.8 Z"
       id="path1574"
       style="fill:url(#radialGradient4121);fill-opacity:1"
       sodipodi:nodetypes="ssssssssssssssssssssssssssssscssssssscsssccsscssssssscsssssscssscsssss" />
  </g>
</svg>
