<?xml version="1.0" encoding="UTF-8" standalone="no"?>
<svg
   xmlns:dc="http://purl.org/dc/elements/1.1/"
   xmlns:cc="http://creativecommons.org/ns#"
   xmlns:rdf="http://www.w3.org/1999/02/22-rdf-syntax-ns#"
   xmlns:svg="http://www.w3.org/2000/svg"
   xmlns="http://www.w3.org/2000/svg"
   xmlns:sodipodi="http://sodipodi.sourceforge.net/DTD/sodipodi-0.dtd"
   xmlns:inkscape="http://www.inkscape.org/namespaces/inkscape"
   id="weather-icon-cloudy"
   class="weather-icon weather-icon-black cloudy"
   viewBox="0 0 64 64"
   version="1.1"
   sodipodi:docname="loadercloud.svg"
   inkscape:version="1.0.1 (c497b03c, 2020-09-10)">
  <metadata
     id="metadata840">
    <rdf:RDF>
      <cc:Work
         rdf:about="">
        <dc:format>image/svg+xml</dc:format>
        <dc:type
           rdf:resource="http://purl.org/dc/dcmitype/StillImage" />
        <dc:title></dc:title>
      </cc:Work>
    </rdf:RDF>
  </metadata>
  <defs
     id="defs838" />
  <sodipodi:namedview
     pagecolor="#ffffff"
     bordercolor="#666666"
     borderopacity="1"
     objecttolerance="10"
     gridtolerance="10"
     guidetolerance="10"
     inkscape:pageopacity="0"
     inkscape:pageshadow="2"
     inkscape:window-width="1920"
     inkscape:window-height="1052"
     id="namedview836"
     showgrid="false"
     inkscape:zoom="13.744731"
     inkscape:cx="32"
     inkscape:cy="32"
     inkscape:window-x="1440"
     inkscape:window-y="0"
     inkscape:window-maximized="0"
     inkscape:current-layer="weather-icon-cloudy" />
  <path
     d="M 49.7,50.2 H 16.8 C 11.2,50.2 6.6,45.6 6.6,40 c 0,-4.4 2.9,-8.3 7,-9.7 V 30 c 0,-5.1 4.2,-9.3 9.3,-9.3 1.3,0 2.5,0.3 3.7,0.8 2.5,-3.7 6.6,-6 11.2,-6 7.4,0 13.4,6 13.4,13.4 0,0.8 -0.1,1.6 -0.2,2.4 4.7,0.6 8.3,4.6 8.3,9.4 -0.1,5.2 -4.4,9.5 -9.6,9.5 z M 22.9,23.4 c -3.6,0 24.61196,-3.693474 24.61196,-0.09347 C 47.51196,23.606526 16.3,30.7 16.4,31.1 l 0.2,1.3 -1.3,0.2 c -3.5,0.7 41.336359,4.454796 41.336359,8.054796 C 56.636359,44.854796 12.6,47.5 16.7,47.5 h 32.9 c 3.8,0 -35.106968,4.030005 -35.106968,0.330005 C 14.493032,44.030005 53.3,33.9 49.6,33.9 l 2.319185,8.948884 -42.0153331,1.118572 7.5117391,-20.307054 c 0.3,-1.1 13.741438,-2.782041 13.741438,-3.882041 C 31.157029,13.878361 43.6,18.1 37.7,18.1 c -4,0 -7.6,2.2 -9.5,5.7 l -0.7,1.3 -1.2,-0.7 c -1,-0.7 -2.2,-1 -3.4,-1 z"
     id="path833"
     style="fill:#ffffff;fill-opacity:1"
     sodipodi:nodetypes="ssscsscssccssscccssssscccsscccs" />
</svg>
